# MagicaVoxel @ Ephtracy

# group
o 

# material
mtllib Wing_Down.mtl
usemtl palette

# normals
vn -1 0 0
vn 1 0 0
vn 0 0 1
vn 0 0 -1
vn 0 -1 0
vn 0 1 0

# texcoords
vt 0.958984 0.5
vt 0.986328 0.5

# verts
v 0.8 3.6 0.3
v 0.8 3.6 -0.3
v 0.8 3.8 0.3
v 0.8 3.8 -0.3
v 1 3.5 0.3
v 1 3.5 -0.3
v 1 3.6 0.3
v 1 3.6 -0.3
v 1.2 3.4 0.3
v 1.2 3.4 -0.2
v 1.2 3.4 -0.3
v 1.2 3.5 0.3
v 1.2 3.5 -0.2
v 1.2 3.5 -0.3
v 1.4 3.3 0.3
v 1.4 3.3 -0.3
v 1.4 3.4 0.3
v 1.4 3.4 -0.3
v 1 3.7 0.3
v 1 3.7 -0.3
v 1 3.8 0.3
v 1 3.8 -0.3
v 1.2 3.6 0.3
v 1.2 3.6 0.2
v 1.2 3.6 0.1
v 1.2 3.6 -2.98023e-08
v 1.2 3.6 -0.1
v 1.2 3.6 -0.2
v 1.2 3.6 -0.3
v 1.2 3.7 0.3
v 1.2 3.7 -0.3
v 1.4 3.5 0.3
v 1.4 3.5 -0.3
v 1.4 3.6 0.3
v 1.4 3.6 -0.3
v 1.6 3.3 0.3
v 1.6 3.3 -0.3
v 1.6 3.5 0.3
v 1.6 3.5 -0.3
v 0.8 3.6 0.3
v 0.8 3.8 0.3
v 1 3.5 0.3
v 1 3.6 0.3
v 1 3.7 0.3
v 1 3.8 0.3
v 1.2 3.4 0.3
v 1.2 3.5 0.3
v 1.2 3.6 0.3
v 1.2 3.7 0.3
v 1.3 3.4 0.3
v 1.3 3.6 0.3
v 1.4 3.3 0.3
v 1.4 3.4 0.3
v 1.4 3.5 0.3
v 1.4 3.6 0.3
v 1.6 3.3 0.3
v 1.6 3.5 0.3
v 0.8 3.6 -0.3
v 0.8 3.8 -0.3
v 1 3.5 -0.3
v 1 3.6 -0.3
v 1 3.7 -0.3
v 1 3.8 -0.3
v 1.2 3.4 -0.3
v 1.2 3.5 -0.3
v 1.2 3.6 -0.3
v 1.2 3.7 -0.3
v 1.4 3.3 -0.3
v 1.4 3.4 -0.3
v 1.4 3.5 -0.3
v 1.4 3.6 -0.3
v 1.6 3.3 -0.3
v 1.6 3.5 -0.3
v 1.4 3.3 0.3
v 1.6 3.3 0.3
v 1.4 3.3 -0.3
v 1.6 3.3 -0.3
v 1.2 3.4 0.3
v 1.3 3.4 0.3
v 1.4 3.4 0.3
v 1.2 3.4 -0.2
v 1.3 3.4 -0.2
v 1.2 3.4 -0.3
v 1.4 3.4 -0.3
v 1 3.5 0.3
v 1.2 3.5 0.3
v 1.2 3.5 -0.2
v 1 3.5 -0.3
v 1.2 3.5 -0.3
v 0.8 3.6 0.3
v 1 3.6 0.3
v 0.8 3.6 -0.3
v 1 3.6 -0.3
v 1.4 3.5 0.3
v 1.6 3.5 0.3
v 1.4 3.5 -0.3
v 1.6 3.5 -0.3
v 1.2 3.6 0.3
v 1.3 3.6 0.3
v 1.4 3.6 0.3
v 1.2 3.6 0.2
v 1.3 3.6 0.2
v 1.2 3.6 0.1
v 1.3 3.6 0.1
v 1.2 3.6 -2.98023e-08
v 1.3 3.6 -2.98023e-08
v 1.2 3.6 -0.1
v 1.3 3.6 -0.1
v 1.2 3.6 -0.2
v 1.3 3.6 -0.2
v 1.2 3.6 -0.3
v 1.4 3.6 -0.3
v 1 3.7 0.3
v 1.2 3.7 0.3
v 1 3.7 -0.3
v 1.2 3.7 -0.3
v 0.8 3.8 0.3
v 1 3.8 0.3
v 0.8 3.8 -0.3
v 1 3.8 -0.3

# faces
f 3/1/1 2/1/1 1/1/1
f 4/1/1 2/1/1 3/1/1
f 7/1/1 6/1/1 5/1/1
f 8/1/1 6/1/1 7/1/1
f 12/1/1 10/1/1 9/1/1
f 13/2/1 11/2/1 10/2/1
f 13/1/1 10/1/1 12/1/1
f 14/2/1 11/2/1 13/2/1
f 17/2/1 16/2/1 15/2/1
f 18/2/1 16/2/1 17/2/1
f 19/1/2 20/1/2 21/1/2
f 21/1/2 20/1/2 22/1/2
f 23/1/2 24/1/2 30/1/2
f 28/1/2 29/1/2 30/1/2
f 27/1/2 28/1/2 30/1/2
f 26/1/2 27/1/2 30/1/2
f 25/1/2 26/1/2 30/1/2
f 24/1/2 25/1/2 30/1/2
f 30/1/2 29/1/2 31/1/2
f 32/2/2 33/2/2 34/2/2
f 34/2/2 33/2/2 35/2/2
f 36/2/2 37/2/2 38/2/2
f 38/2/2 37/2/2 39/2/2
f 43/1/3 41/1/3 40/1/3
f 44/1/3 41/1/3 43/1/3
f 45/1/3 41/1/3 44/1/3
f 47/1/3 43/1/3 42/1/3
f 47/1/3 44/1/3 43/1/3
f 48/1/3 44/1/3 47/1/3
f 49/1/3 44/1/3 48/1/3
f 50/1/3 47/1/3 46/1/3
f 50/1/3 48/1/3 47/1/3
f 51/1/3 48/1/3 50/1/3
f 53/2/3 51/2/3 50/2/3
f 54/2/3 51/2/3 53/2/3
f 55/2/3 51/2/3 54/2/3
f 56/2/3 53/2/3 52/2/3
f 56/2/3 54/2/3 53/2/3
f 57/2/3 54/2/3 56/2/3
f 58/1/4 59/1/4 61/1/4
f 61/1/4 59/1/4 62/1/4
f 62/1/4 59/1/4 63/1/4
f 60/1/4 61/1/4 65/1/4
f 61/1/4 62/1/4 65/1/4
f 65/1/4 62/1/4 66/1/4
f 66/1/4 62/1/4 67/1/4
f 64/2/4 65/2/4 69/2/4
f 65/2/4 66/2/4 69/2/4
f 69/2/4 66/2/4 70/2/4
f 70/2/4 66/2/4 71/2/4
f 68/2/4 69/2/4 72/2/4
f 69/2/4 70/2/4 72/2/4
f 72/2/4 70/2/4 73/2/4
f 76/2/5 75/2/5 74/2/5
f 77/2/5 75/2/5 76/2/5
f 81/1/5 79/1/5 78/1/5
f 82/2/5 80/2/5 79/2/5
f 82/1/5 79/1/5 81/1/5
f 83/2/5 82/2/5 81/2/5
f 84/2/5 80/2/5 82/2/5
f 84/2/5 82/2/5 83/2/5
f 87/1/5 86/1/5 85/1/5
f 88/1/5 87/1/5 85/1/5
f 89/1/5 87/1/5 88/1/5
f 92/1/5 91/1/5 90/1/5
f 93/1/5 91/1/5 92/1/5
f 94/2/6 95/2/6 96/2/6
f 96/2/6 95/2/6 97/2/6
f 98/1/6 99/1/6 101/1/6
f 99/2/6 100/2/6 102/2/6
f 101/1/6 99/1/6 102/1/6
f 101/2/6 102/2/6 103/2/6
f 102/2/6 100/2/6 104/2/6
f 103/2/6 102/2/6 104/2/6
f 103/1/6 104/1/6 105/1/6
f 104/2/6 100/2/6 106/2/6
f 105/1/6 104/1/6 106/1/6
f 105/2/6 106/2/6 107/2/6
f 106/2/6 100/2/6 108/2/6
f 107/2/6 106/2/6 108/2/6
f 107/1/6 108/1/6 109/1/6
f 108/2/6 100/2/6 110/2/6
f 109/1/6 108/1/6 110/1/6
f 109/2/6 110/2/6 111/2/6
f 110/2/6 100/2/6 112/2/6
f 111/2/6 110/2/6 112/2/6
f 113/1/6 114/1/6 115/1/6
f 115/1/6 114/1/6 116/1/6
f 117/1/6 118/1/6 119/1/6
f 119/1/6 118/1/6 120/1/6
