# MagicaVoxel @ Ephtracy

# group
o 

# material
mtllib Wing_By_Side.mtl
usemtl palette

# normals
vn -1 0 0
vn 1 0 0
vn 0 0 1
vn 0 0 -1
vn 0 -1 0
vn 0 1 0

# texcoords
vt 0.958984 0.5
vt 0.986328 0.5

# verts
v 0.8 3.6 0.3
v 0.8 3.6 -0.3
v 0.8 3.8 0.3
v 0.8 3.8 -0.3
v 0.9 3.4 0.3
v 0.9 3.4 -0.3
v 0.9 3.6 0.3
v 0.9 3.6 -0.3
v 1 3.2 0.3
v 1 3.2 -0.3
v 1 3.4 0.3
v 1 3.4 -0.3
v 1.1 3 0.3
v 1.1 3 -0.3
v 1.1 3.2 0.3
v 1.1 3.2 -0.3
v 1 3.6 0.3
v 1 3.6 -0.3
v 1 3.8 0.3
v 1 3.8 -0.3
v 1.1 3.4 0.3
v 1.1 3.4 0.2
v 1.1 3.4 0.1
v 1.1 3.4 -2.98023e-08
v 1.1 3.4 -0.1
v 1.1 3.4 -0.2
v 1.1 3.4 -0.3
v 1.1 3.6 0.3
v 1.1 3.6 -0.3
v 1.2 3.2 0.3
v 1.2 3.2 -0.3
v 1.2 3.3 0.3
v 1.2 3.3 0.2
v 1.2 3.3 0.1
v 1.2 3.3 -2.98023e-08
v 1.2 3.3 -0.1
v 1.2 3.3 -0.2
v 1.2 3.4 0.3
v 1.2 3.4 0.2
v 1.2 3.4 0.1
v 1.2 3.4 -2.98023e-08
v 1.2 3.4 -0.1
v 1.2 3.4 -0.2
v 1.2 3.4 -0.3
v 1.3 3 0.3
v 1.3 3 -0.3
v 1.3 3.2 0.3
v 1.3 3.2 -0.3
v 0.8 3.6 0.3
v 0.8 3.8 0.3
v 0.9 3.4 0.3
v 0.9 3.6 0.3
v 1 3.2 0.3
v 1 3.4 0.3
v 1 3.6 0.3
v 1 3.8 0.3
v 1.1 3 0.3
v 1.1 3.2 0.3
v 1.1 3.3 0.3
v 1.1 3.4 0.3
v 1.1 3.6 0.3
v 1.2 3.2 0.3
v 1.2 3.3 0.3
v 1.2 3.4 0.3
v 1.3 3 0.3
v 1.3 3.2 0.3
v 0.8 3.6 -0.3
v 0.8 3.8 -0.3
v 0.9 3.4 -0.3
v 0.9 3.6 -0.3
v 1 3.2 -0.3
v 1 3.4 -0.3
v 1 3.6 -0.3
v 1 3.8 -0.3
v 1.1 3 -0.3
v 1.1 3.2 -0.3
v 1.1 3.4 -0.3
v 1.1 3.6 -0.3
v 1.2 3.2 -0.3
v 1.2 3.4 -0.3
v 1.3 3 -0.3
v 1.3 3.2 -0.3
v 1.1 3 0.3
v 1.3 3 0.3
v 1.1 3 -0.3
v 1.3 3 -0.3
v 1 3.2 0.3
v 1.1 3.2 0.3
v 1 3.2 -0.3
v 1.1 3.2 -0.3
v 0.9 3.4 0.3
v 1 3.4 0.3
v 0.9 3.4 -0.3
v 1 3.4 -0.3
v 0.8 3.6 0.3
v 0.9 3.6 0.3
v 0.8 3.6 -0.3
v 0.9 3.6 -0.3
v 1.2 3.2 0.3
v 1.3 3.2 0.3
v 1.2 3.2 -0.3
v 1.3 3.2 -0.3
v 1.1 3.4 0.3
v 1.2 3.4 0.3
v 1.1 3.4 0.2
v 1.2 3.4 0.2
v 1.1 3.4 0.1
v 1.2 3.4 0.1
v 1.1 3.4 -2.98023e-08
v 1.2 3.4 -2.98023e-08
v 1.1 3.4 -0.1
v 1.2 3.4 -0.1
v 1.1 3.4 -0.2
v 1.2 3.4 -0.2
v 1.1 3.4 -0.3
v 1.2 3.4 -0.3
v 1 3.6 0.3
v 1.1 3.6 0.3
v 1 3.6 -0.3
v 1.1 3.6 -0.3
v 0.8 3.8 0.3
v 1 3.8 0.3
v 0.8 3.8 -0.3
v 1 3.8 -0.3

# faces
f 3/1/1 2/1/1 1/1/1
f 4/1/1 2/1/1 3/1/1
f 7/1/1 6/1/1 5/1/1
f 8/1/1 6/1/1 7/1/1
f 11/2/1 10/2/1 9/2/1
f 12/2/1 10/2/1 11/2/1
f 15/2/1 14/2/1 13/2/1
f 16/2/1 14/2/1 15/2/1
f 17/1/2 18/1/2 19/1/2
f 19/1/2 18/1/2 20/1/2
f 21/1/2 22/1/2 28/1/2
f 26/1/2 27/1/2 28/1/2
f 25/1/2 26/1/2 28/1/2
f 24/1/2 25/1/2 28/1/2
f 23/1/2 24/1/2 28/1/2
f 22/1/2 23/1/2 28/1/2
f 28/1/2 27/1/2 29/1/2
f 30/2/2 31/2/2 32/2/2
f 32/2/2 31/2/2 33/2/2
f 33/2/2 31/2/2 34/2/2
f 34/2/2 31/2/2 35/2/2
f 35/2/2 31/2/2 36/2/2
f 36/2/2 31/2/2 37/2/2
f 32/1/2 33/1/2 38/1/2
f 33/2/2 34/2/2 39/2/2
f 38/1/2 33/1/2 39/1/2
f 34/1/2 35/1/2 40/1/2
f 39/2/2 34/2/2 40/2/2
f 35/2/2 36/2/2 41/2/2
f 40/1/2 35/1/2 41/1/2
f 36/1/2 37/1/2 42/1/2
f 41/2/2 36/2/2 42/2/2
f 37/2/2 31/2/2 43/2/2
f 42/1/2 37/1/2 43/1/2
f 43/2/2 31/2/2 44/2/2
f 45/2/2 46/2/2 47/2/2
f 47/2/2 46/2/2 48/2/2
f 52/1/3 50/1/3 49/1/3
f 54/1/3 52/1/3 51/1/3
f 55/1/3 50/1/3 52/1/3
f 55/1/3 52/1/3 54/1/3
f 56/1/3 50/1/3 55/1/3
f 58/2/3 54/2/3 53/2/3
f 59/2/3 54/2/3 58/2/3
f 60/1/3 55/1/3 54/1/3
f 60/2/3 54/2/3 59/2/3
f 61/1/3 55/1/3 60/1/3
f 62/2/3 59/2/3 58/2/3
f 62/2/3 58/2/3 57/2/3
f 63/1/3 60/1/3 59/1/3
f 63/2/3 59/2/3 62/2/3
f 64/1/3 60/1/3 63/1/3
f 65/2/3 62/2/3 57/2/3
f 66/2/3 62/2/3 65/2/3
f 67/1/4 68/1/4 70/1/4
f 69/1/4 70/1/4 72/1/4
f 70/1/4 68/1/4 73/1/4
f 72/1/4 70/1/4 73/1/4
f 73/1/4 68/1/4 74/1/4
f 71/2/4 72/2/4 76/2/4
f 72/1/4 73/1/4 77/1/4
f 76/2/4 72/2/4 77/2/4
f 77/1/4 73/1/4 78/1/4
f 75/2/4 76/2/4 79/2/4
f 76/2/4 77/2/4 79/2/4
f 79/2/4 77/2/4 80/2/4
f 75/2/4 79/2/4 81/2/4
f 81/2/4 79/2/4 82/2/4
f 85/2/5 84/2/5 83/2/5
f 86/2/5 84/2/5 85/2/5
f 89/2/5 88/2/5 87/2/5
f 90/2/5 88/2/5 89/2/5
f 93/1/5 92/1/5 91/1/5
f 94/1/5 92/1/5 93/1/5
f 97/1/5 96/1/5 95/1/5
f 98/1/5 96/1/5 97/1/5
f 99/2/6 100/2/6 101/2/6
f 101/2/6 100/2/6 102/2/6
f 103/1/6 104/1/6 105/1/6
f 105/1/6 104/1/6 106/1/6
f 105/2/6 106/2/6 107/2/6
f 107/2/6 106/2/6 108/2/6
f 107/1/6 108/1/6 109/1/6
f 109/1/6 108/1/6 110/1/6
f 109/2/6 110/2/6 111/2/6
f 111/2/6 110/2/6 112/2/6
f 111/1/6 112/1/6 113/1/6
f 113/1/6 112/1/6 114/1/6
f 113/2/6 114/2/6 115/2/6
f 115/2/6 114/2/6 116/2/6
f 117/1/6 118/1/6 119/1/6
f 119/1/6 118/1/6 120/1/6
f 121/1/6 122/1/6 123/1/6
f 123/1/6 122/1/6 124/1/6
